<?xml version="1.0" encoding="UTF-8" standalone="no"?>
<svg
   xmlns:dc="http://purl.org/dc/elements/1.1/"
   xmlns:cc="http://creativecommons.org/ns#"
   xmlns:rdf="http://www.w3.org/1999/02/22-rdf-syntax-ns#"
   xmlns:svg="http://www.w3.org/2000/svg"
   xmlns="http://www.w3.org/2000/svg"
   xmlns:sodipodi="http://sodipodi.sourceforge.net/DTD/sodipodi-0.dtd"
   xmlns:inkscape="http://www.inkscape.org/namespaces/inkscape"
   version="1.1"
   id="Capa_1"
   x="0px"
   y="0px"
   viewBox="0 0 46.042961 46.042961"
   xml:space="preserve"
   sodipodi:docname="ig.svg"
   width="46.042961"
   height="46.042961"
   inkscape:version="1.0.1 (0767f8302a, 2020-10-17)"><metadata
   id="metadata55"><rdf:RDF><cc:Work
       rdf:about=""><dc:format>image/svg+xml</dc:format><dc:type
         rdf:resource="http://purl.org/dc/dcmitype/StillImage" /><dc:title></dc:title></cc:Work></rdf:RDF></metadata><defs
   id="defs53" /><sodipodi:namedview
   pagecolor="#ffffff"
   bordercolor="#666666"
   borderopacity="1"
   objecttolerance="10"
   gridtolerance="10"
   guidetolerance="10"
   inkscape:pageopacity="0"
   inkscape:pageshadow="2"
   inkscape:window-width="1848"
   inkscape:window-height="1016"
   id="namedview51"
   showgrid="false"
   fit-margin-top="0"
   fit-margin-left="0"
   fit-margin-right="0"
   fit-margin-bottom="0"
   inkscape:zoom="0.84179688"
   inkscape:cx="-101.20809"
   inkscape:cy="148.44104"
   inkscape:window-x="72"
   inkscape:window-y="27"
   inkscape:window-maximized="1"
   inkscape:current-layer="Capa_1" />
<g
   id="g6"
   transform="scale(0.08992766)">
	<g
   id="g4">
		<path
   d="M 352,0 H 160 C 71.648,0 0,71.648 0,160 v 192 c 0,88.352 71.648,160 160,160 h 192 c 88.352,0 160,-71.648 160,-160 V 160 C 512,71.648 440.352,0 352,0 Z m 112,352 c 0,61.76 -50.24,112 -112,112 H 160 C 98.24,464 48,413.76 48,352 V 160 C 48,98.24 98.24,48 160,48 h 192 c 61.76,0 112,50.24 112,112 z"
   id="path2" />
	</g>
</g>
<g
   id="g12"
   transform="scale(0.08992766)">
	<g
   id="g10">
		<path
   d="m 256,128 c -70.688,0 -128,57.312 -128,128 0,70.688 57.312,128 128,128 70.688,0 128,-57.312 128,-128 0,-70.688 -57.312,-128 -128,-128 z m 0,208 c -44.096,0 -80,-35.904 -80,-80 0,-44.128 35.904,-80 80,-80 44.096,0 80,35.872 80,80 0,44.096 -35.904,80 -80,80 z"
   id="path8" />
	</g>
</g>
<g
   id="g18"
   transform="scale(0.08992766)">
	<g
   id="g16">
		<circle
   cx="393.60001"
   cy="118.4"
   r="17.056"
   id="circle14" />
	</g>
</g>
<g
   id="g20"
   transform="translate(-232.97852,-232.97852)">
</g>
<g
   id="g22"
   transform="translate(-232.97852,-232.97852)">
</g>
<g
   id="g24"
   transform="translate(-232.97852,-232.97852)">
</g>
<g
   id="g26"
   transform="translate(-232.97852,-232.97852)">
</g>
<g
   id="g28"
   transform="translate(-232.97852,-232.97852)">
</g>
<g
   id="g30"
   transform="translate(-232.97852,-232.97852)">
</g>
<g
   id="g32"
   transform="translate(-232.97852,-232.97852)">
</g>
<g
   id="g34"
   transform="translate(-232.97852,-232.97852)">
</g>
<g
   id="g36"
   transform="translate(-232.97852,-232.97852)">
</g>
<g
   id="g38"
   transform="translate(-232.97852,-232.97852)">
</g>
<g
   id="g40"
   transform="translate(-232.97852,-232.97852)">
</g>
<g
   id="g42"
   transform="translate(-232.97852,-232.97852)">
</g>
<g
   id="g44"
   transform="translate(-232.97852,-232.97852)">
</g>
<g
   id="g46"
   transform="translate(-232.97852,-232.97852)">
</g>
<g
   id="g48"
   transform="translate(-232.97852,-232.97852)">
</g>
</svg>
